<svg width="25" height="24" viewBox="0 0 25 24" fill="none" xmlns="http://www.w3.org/2000/svg">
<path d="M13.2791 1.48529L16.0048 6.98815C16.0668 7.12782 16.1643 7.2488 16.2876 7.33904C16.411 7.42927 16.5558 7.48561 16.7077 7.50243L22.7248 8.39386C22.899 8.41625 23.0633 8.48776 23.1984 8.60001C23.3335 8.71227 23.4339 8.86065 23.4878 9.02783C23.5417 9.195 23.547 9.37407 23.5029 9.54411C23.4589 9.71416 23.3674 9.86817 23.2391 9.98815L18.9019 14.291C18.7913 14.3944 18.7082 14.5239 18.6603 14.6676C18.6124 14.8113 18.6012 14.9647 18.6277 15.1139L19.6734 21.1653C19.7037 21.3392 19.6845 21.5181 19.6181 21.6816C19.5518 21.8451 19.4408 21.9868 19.2979 22.0904C19.155 22.194 18.9859 22.2554 18.8098 22.2676C18.6338 22.2799 18.4578 22.2424 18.3019 22.1596L12.8848 19.2967C12.7461 19.2286 12.5936 19.1932 12.4391 19.1932C12.2846 19.1932 12.1321 19.2286 11.9934 19.2967L6.57623 22.1596C6.42038 22.2424 6.24441 22.2799 6.06834 22.2676C5.89226 22.2554 5.72316 22.194 5.58026 22.0904C5.43736 21.9868 5.32642 21.8451 5.26004 21.6816C5.19367 21.5181 5.17453 21.3392 5.20481 21.1653L6.25052 15.0453C6.27702 14.8961 6.26581 14.7427 6.21791 14.599C6.17 14.4553 6.08693 14.3259 5.97623 14.2224L1.58766 9.98815C1.45783 9.86488 1.36652 9.70661 1.3248 9.53251C1.28308 9.35841 1.29274 9.17595 1.35261 9.00723C1.41248 8.83851 1.51999 8.69077 1.66212 8.5819C1.80424 8.47304 1.97489 8.40772 2.15338 8.39386L8.17052 7.50243C8.3224 7.48561 8.46722 7.42927 8.59054 7.33904C8.71387 7.2488 8.81138 7.12782 8.87338 6.98815L11.5991 1.48529C11.6733 1.32502 11.7918 1.18933 11.9407 1.09423C12.0895 0.999138 12.2625 0.948608 12.4391 0.948608C12.6157 0.948608 12.7887 0.999138 12.9375 1.09423C13.0863 1.18933 13.2049 1.32502 13.2791 1.48529Z" stroke-width="1.71429" stroke-linecap="round" stroke-linejoin="round"/>
</svg>
